<svg width="26" height="17" viewBox="0 0 26 17" fill="none" xmlns="http://www.w3.org/2000/svg">
    <path fill-rule="evenodd" clip-rule="evenodd" d="M25.999 15.3853V8.28109V4.68945V1.10506C25.9961 0.450587 25.5419 0 24.8889 0H22.9835C22.3131 0.00145117 21.8567 0.460751 21.8567 1.12901V2.99594C21.8661 3.25464 21.7865 3.50873 21.631 3.71572C21.3676 4.05311 21.0179 4.14164 20.6152 4.14164H14.7634C13.9979 4.14164 13.5625 4.57987 13.5625 5.34609V15.3592C13.5625 16.1392 13.9928 16.5745 14.7699 16.5745H24.8069C25.5637 16.5745 25.999 16.1421 25.999 15.3853ZM19.7782 8.0756C20.3029 8.0756 20.7283 8.50117 20.7283 9.02612V11.6897C20.7283 12.2147 20.3029 12.6403 19.7782 12.6403C19.2534 12.6403 18.828 12.2147 18.828 11.6897V9.02612C18.828 8.50117 19.2534 8.0756 19.7782 8.0756Z" fill="black"/>
    <path fill-rule="evenodd" clip-rule="evenodd" d="M12.4372 15.3853V8.28109L12.4351 4.68945V1.10506C12.4329 0.450587 11.978 0 11.3249 0H9.42098C8.75054 0.00145117 8.29417 0.460751 8.29417 1.12901V2.99594C8.30429 3.25472 8.22453 3.50903 8.06848 3.71572C7.8051 4.05311 7.45609 4.14164 7.05266 4.14164H1.20083C0.435337 4.14164 0 4.57987 0 5.34609V15.3592C0 16.1392 0.430972 16.5745 1.20735 16.5745H11.2451C12.0019 16.5745 12.4372 16.1421 12.4372 15.3853ZM6.21841 8.07558C6.74316 8.07558 7.16856 8.50114 7.16856 9.0261V11.6897C7.16856 12.2147 6.74316 12.6402 6.21841 12.6402C5.69365 12.6402 5.26825 12.2147 5.26825 11.6897V9.0261C5.26825 8.50114 5.69365 8.07558 6.21841 8.07558Z" fill="black"/>
</svg>
