<svg width="22" height="15" viewBox="0 0 22 15" fill="none" xmlns="http://www.w3.org/2000/svg">
    <path d="M18.5477 2.06005C17.1088 0.937059 15.3822 0.375565 13.5597 0.281982L13.272 0.56273C14.9026 0.937059 16.3415 1.68572 17.6844 2.71512C16.0537 1.87288 14.2312 1.31139 12.3127 1.12422C11.7372 1.03064 11.2576 1.03064 10.6821 1.03064C10.1065 1.03064 9.62692 1.03064 9.05138 1.12422C7.13294 1.31139 5.31043 1.87288 3.67975 2.71512C5.02266 1.68572 6.46149 0.937059 8.09216 0.56273L7.8044 0.281982C5.98188 0.375565 4.25529 0.937059 2.81646 2.06005C1.18578 5.05469 0.322484 8.42365 0.226562 11.8862C1.66539 13.3835 3.67975 14.3193 5.79004 14.3193C5.79004 14.3193 6.46149 13.5707 6.9411 12.9156C5.69412 12.6349 4.54305 11.9798 3.77568 10.9504C4.44713 11.3247 5.11858 11.699 5.79004 11.9798C6.65334 12.3541 7.51663 12.5413 8.37993 12.7284C9.14731 12.822 9.91468 12.9156 10.6821 12.9156C11.4494 12.9156 12.2168 12.822 12.9842 12.7284C13.8475 12.5413 14.7108 12.3541 15.5741 11.9798C16.2455 11.699 16.917 11.3247 17.5884 10.9504C16.8211 11.9798 15.67 12.6349 14.423 12.9156C14.9026 13.5707 15.5741 14.3193 15.5741 14.3193C17.6844 14.3193 19.6987 13.3835 21.1376 11.8862C21.0416 8.42365 20.1783 5.05469 18.5477 2.06005ZM7.51663 10.2017C6.55741 10.2017 5.69411 9.35948 5.69411 8.33007C5.69411 7.30066 6.55741 6.45842 7.51663 6.45842C8.47585 6.45842 9.33915 7.30066 9.33915 8.33007C9.33915 9.35948 8.47585 10.2017 7.51663 10.2017ZM13.8475 10.2017C12.8883 10.2017 12.025 9.35948 12.025 8.33007C12.025 7.30066 12.8883 6.45842 13.8475 6.45842C14.8067 6.45842 15.67 7.30066 15.67 8.33007C15.67 9.35948 14.8067 10.2017 13.8475 10.2017Z" fill="#666666"/>
</svg>
