<svg width="17" height="17" viewBox="0 0 17 17" fill="none" xmlns="http://www.w3.org/2000/svg">
    <path fill-rule="evenodd" clip-rule="evenodd" d="M8.98988 0C4.57392 0 0.980469 3.59429 0.980469 8.01025C0.980469 12.4279 4.57392 16.0205 8.98988 16.0205C13.4075 16.0205 17.001 12.4271 17.001 8.01025C17.001 3.59429 13.4084 0 8.98988 0ZM15.8229 8.01029C15.8229 9.57273 15.2919 11.0138 14.4071 12.1667C14.1568 11.9703 13.8913 11.4428 14.1416 10.895C14.3936 10.3447 14.4601 9.06962 14.4028 8.57408C14.3472 8.07855 14.0902 6.88355 13.389 6.87175C12.6904 6.86163 12.2109 6.62988 11.7954 5.80062C10.9333 4.07553 13.4135 3.74433 12.5505 2.78782C12.3095 2.51983 11.0622 3.89266 10.8802 2.06307C10.8684 1.93413 10.994 1.73777 11.16 1.53467C13.8669 2.44483 15.8229 5.00255 15.8229 8.01029ZM8.05371 1.24658C7.89022 1.5643 7.45958 1.69408 7.1958 1.93342C6.62611 2.44917 6.38087 2.37838 6.07327 2.87392C5.76398 3.36945 4.76618 4.08409 4.76618 4.44226C4.76618 4.80042 5.27014 5.22348 5.52127 5.14089C5.7741 5.0583 6.43818 5.06251 6.82921 5.19988C7.22024 5.33809 10.0957 5.4763 9.17961 7.90592C8.88887 8.67872 7.61717 8.54809 7.27755 9.82821C7.22614 10.0153 7.05085 10.8176 7.03905 11.0797C7.01882 11.485 7.32642 13.0138 6.93539 13.0138C6.54183 13.0138 5.48504 11.6468 5.48504 11.3991C5.48504 11.1513 5.2103 10.2825 5.2103 9.53831C5.2103 8.79417 3.94535 8.80597 3.94535 7.81743C3.94535 6.92413 4.63134 6.48169 4.47712 6.05358C4.32627 5.62799 3.1203 5.61282 2.61719 5.56142C3.49617 3.28349 5.56257 1.59126 8.05371 1.24658ZM6.84375 14.4939C7.25332 14.2773 7.29546 13.9983 7.66795 13.9823C8.09353 13.9629 8.4399 13.8163 8.91942 13.711C9.34501 13.6183 10.106 13.1859 10.7777 13.1303C11.3423 13.0848 12.4581 13.1598 12.7598 13.7059C11.6786 14.4239 10.3833 14.8428 8.9919 14.8428C8.24101 14.8428 7.51963 14.7189 6.84375 14.4939Z" fill="#666666"/>
</svg>
