<svg width="29" height="25" viewBox="0 0 29 25" fill="none" xmlns="http://www.w3.org/2000/svg">
    <path d="M2.00004 8.99483C2.00004 8.17857 2.00004 7.36255 2.00004 6.54674C2.00004 5.91788 2.42241 5.50709 3.0638 5.50108C3.59025 5.49642 4.11669 5.50108 4.64245 5.48174C4.87409 5.46942 5.09334 5.37521 5.25954 5.21654C5.42575 5.05787 5.52764 4.84551 5.54639 4.61881C5.57291 4.10399 5.56613 3.58716 5.56953 3.071C5.57294 2.4108 5.98579 2.004 6.65779 2C7.66579 2 8.67354 2 9.68108 2C10.3266 2 10.9734 2 11.6168 2C12.2868 2 12.7051 2.41679 12.7051 3.07499C12.7051 3.50846 12.7051 3.94194 12.7051 4.37408C12.7051 5.08496 13.0901 5.48374 13.8165 5.49775C14.3252 5.50842 14.8367 5.49775 15.3441 5.48108C15.5846 5.46959 15.8121 5.37078 15.9823 5.20387C16.1525 5.03696 16.2533 4.81389 16.2651 4.57813C16.2848 4.0733 16.2746 3.56781 16.2759 3.06232C16.2759 2.41946 16.701 2.00133 17.3642 2C18.3722 2 19.38 2 20.3875 2C21.033 2 21.6798 2 22.3232 2C22.9993 2 23.4115 2.40879 23.4176 3.067C23.4176 3.57782 23.4176 4.08865 23.4367 4.60081C23.4513 4.83043 23.5511 5.04686 23.7172 5.20936C23.8833 5.37186 24.1043 5.46921 24.3385 5.48308C24.8589 5.50108 25.3792 5.49909 25.9029 5.50309C26.5769 5.50776 26.9912 5.91187 26.9912 6.57541C26.9948 7.70242 26.9977 8.82901 27 9.95513C27 10.4546 26.9946 10.9554 26.9912 11.4536C26.9871 12.0791 26.5606 12.4993 25.9254 12.5019C25.4159 12.5019 24.9051 12.4973 24.3964 12.5093C24.1468 12.5112 23.9076 12.6076 23.7287 12.7783C23.5499 12.9491 23.4453 13.181 23.4367 13.4255C23.4142 13.9244 23.4231 14.4259 23.421 14.924C23.421 15.5909 23 16.0023 22.3178 16.0023C21.8702 16.0023 21.4234 16.0023 20.9758 16.0023C20.2725 16.0023 19.859 16.4058 19.8515 17.098C19.8468 17.5475 19.8515 17.9969 19.8515 18.4471C19.8515 19.0806 19.4224 19.5001 18.7762 19.5014C18.3171 19.5014 17.8587 19.5014 17.3995 19.5014C16.6997 19.5048 16.2827 19.9169 16.2821 20.6038C16.2821 21.0646 16.2821 21.5254 16.2821 21.9862C16.2849 22.1198 16.2602 22.2527 16.2094 22.3768C16.1587 22.5008 16.0829 22.6136 15.9866 22.7082C15.8903 22.8029 15.7755 22.8775 15.6491 22.9276C15.5227 22.9777 15.3873 23.0023 15.2509 22.9998C14.7472 22.9998 14.2432 22.9998 13.7389 22.9998C13.6039 23.0008 13.4701 22.9754 13.3452 22.9251C13.2203 22.8748 13.107 22.8006 13.0117 22.7069C12.9164 22.6131 12.8411 22.5017 12.7902 22.3791C12.7393 22.2565 12.7138 22.1252 12.7153 21.9929C12.7153 21.5214 12.7153 21.0492 12.7153 20.5778C12.7119 19.9162 12.2997 19.5108 11.627 19.5021C11.157 19.4974 10.6864 19.5021 10.2164 19.5021C9.58247 19.5021 9.14987 19.0773 9.14851 18.4558C9.14851 18.0003 9.14851 17.5448 9.14851 17.09C9.14851 16.4231 8.72886 16.007 8.05142 16.003C7.58143 16.003 7.11144 16.003 6.64145 16.003C6.0157 16.003 5.58243 15.5782 5.57903 14.968C5.57563 14.4572 5.58857 13.9457 5.56273 13.4342C5.53552 12.8954 5.12741 12.5206 4.57716 12.5073C4.08472 12.4953 3.59161 12.5026 3.09917 12.5013C2.43057 12.5013 2.01091 12.0851 2.01091 11.4269C2.00321 10.616 1.99958 9.8053 2.00004 8.99483ZM9.14174 5.50841V5.49841C8.34912 5.49841 7.5556 5.49841 6.76118 5.49841C6.63122 5.49458 6.50115 5.50285 6.37278 5.5231C6.14571 5.56744 5.94153 5.68797 5.7953 5.86396C5.64907 6.03995 5.56995 6.2604 5.57156 6.48739C5.56272 7.0529 5.57156 7.62108 5.57156 8.18592C5.57156 9.29026 5.56544 10.3953 5.57156 11.4996C5.57564 12.0571 5.96605 12.4612 6.53262 12.4866C7.04138 12.5099 7.55287 12.4986 8.06095 12.5013C8.70915 12.5013 9.1356 12.9214 9.13696 13.5542C9.13696 14.0431 9.1288 14.5319 9.14376 15.0214C9.16077 15.5682 9.55186 15.9663 10.1103 15.989C10.619 16.0097 11.1305 15.9997 11.6386 16.0023C12.2752 16.0057 12.7058 16.4258 12.7064 17.0467C12.7064 17.5015 12.7064 17.957 12.7064 18.4118C12.7064 19.0886 13.1302 19.5008 13.8185 19.5014C14.2654 19.5014 14.7129 19.5014 15.1605 19.5014C15.8495 19.5014 16.2719 19.0906 16.2766 18.4144C16.2766 17.9589 16.2766 17.5041 16.2766 17.0487C16.2766 16.4258 16.7078 16.0037 17.3431 16.0023C17.8015 16.0023 18.2606 16.0023 18.719 16.0023C19.4346 15.9963 19.8441 15.5922 19.8461 14.8927C19.8461 14.4545 19.8461 14.0157 19.8461 13.5776C19.8461 12.9194 20.2671 12.5059 20.9344 12.5026C21.4554 12.5026 21.9764 12.5093 22.4987 12.4859C22.7421 12.4723 22.9712 12.3689 23.1401 12.1964C23.3089 12.024 23.4049 11.7953 23.4088 11.5563C23.421 10.9795 23.4142 10.4019 23.4142 9.82243C23.4142 8.69541 23.4142 7.56838 23.4067 6.44203C23.4014 6.29856 23.363 6.15812 23.2945 6.03125C23.0816 5.62245 22.7102 5.49308 22.2641 5.49775C21.2166 5.50242 20.1692 5.49775 19.1217 5.49775C18.5096 5.49775 17.8974 5.50709 17.2853 5.50175C16.7255 5.49708 16.2576 5.96123 16.2698 6.56875C16.2793 7.02956 16.2698 7.49037 16.2698 7.95118C16.2698 8.57204 15.8386 8.9955 15.2033 8.9995C14.7272 9.00217 14.2511 9.00217 13.775 8.9995C13.1309 8.99617 12.7017 8.57137 12.701 7.94051C12.701 7.44636 12.7078 6.95221 12.6956 6.45805C12.6935 6.21002 12.5928 5.97253 12.415 5.79608C12.2372 5.61963 11.9963 5.51811 11.7434 5.51308C10.8829 5.49775 10.011 5.50841 9.13902 5.50841H9.14174Z" fill="black"/>
</svg>
