<svg width="16" height="17" viewBox="0 0 16 17" fill="none" xmlns="http://www.w3.org/2000/svg">
    <path d="M10.3335 5.98698L12.6669 3.65365M14.0002 2.32031L12.6669 3.65365L14.0002 2.32031ZM7.59352 8.72698C7.93774 9.06662 8.21139 9.47101 8.39869 9.91684C8.58599 10.3627 8.68325 10.8412 8.68487 11.3247C8.68649 11.8083 8.59244 12.2874 8.40813 12.7345C8.22382 13.1816 7.95289 13.5878 7.61095 13.9297C7.269 14.2717 6.8628 14.5426 6.41572 14.7269C5.96864 14.9112 5.48952 15.0053 5.00594 15.0037C4.52236 15.002 4.04388 14.9048 3.59804 14.7175C3.15221 14.5302 2.74783 14.2565 2.40818 13.9123C1.74027 13.2208 1.37069 12.2946 1.37904 11.3332C1.3874 10.3718 1.77302 9.45214 2.45285 8.77231C3.13268 8.09248 4.05232 7.70686 5.01371 7.69851C5.9751 7.69015 6.90131 8.05973 7.59285 8.72765L7.59352 8.72698ZM7.59352 8.72698L10.3335 5.98698L7.59352 8.72698ZM10.3335 5.98698L12.3335 7.98698L14.6669 5.65365L12.6669 3.65365L10.3335 5.98698Z" stroke="#666666" stroke-linecap="round" stroke-linejoin="round"/>
</svg>
