<svg width="17" height="16" viewBox="0 0 17 16" fill="none" xmlns="http://www.w3.org/2000/svg">
<path d="M1.16793 9.35253L1.22686 9.25996L4.77891 3.70323C4.8308 3.62185 4.95287 3.63029 4.99213 3.71865C5.58555 5.04858 6.09759 6.70255 5.8577 7.73224C5.75529 8.15589 5.47474 8.72968 5.15908 9.25996C5.11839 9.33712 5.07351 9.41288 5.02581 9.48583C5.00336 9.51948 4.96549 9.53914 4.9248 9.53914H1.27174C1.17355 9.53914 1.11605 9.43252 1.16793 9.35253Z" fill="#666666"/>
<path d="M16.9984 10.3851V11.2647C16.9984 11.3152 16.9675 11.3601 16.9227 11.3797C16.6477 11.4976 15.7064 11.9297 15.315 12.474C14.3161 13.8642 13.553 15.8521 11.8471 15.8521H4.73039C2.20803 15.8521 0.164062 13.8011 0.164062 11.2703V11.1889C0.164062 11.1216 0.218771 11.0669 0.286133 11.0669H4.2534C4.33195 11.0669 4.38948 11.1399 4.38248 11.217C4.35441 11.4751 4.40211 11.7389 4.52415 11.9788C4.75985 12.4571 5.24804 12.756 5.77553 12.756H7.73951V11.2226H5.79795C5.69836 11.2226 5.63944 11.1076 5.69697 11.0262C5.718 10.994 5.74185 10.9603 5.76709 10.9224C5.95088 10.6615 6.21319 10.2561 6.47414 9.7945C6.65229 9.48309 6.82485 9.15059 6.96373 8.81673C6.9918 8.7564 7.01425 8.69469 7.03667 8.63434C7.07457 8.52774 7.11384 8.42812 7.1419 8.32854C7.16994 8.24437 7.1924 8.15598 7.21485 8.0732C7.28079 7.78983 7.30885 7.48961 7.30885 7.17817C7.30885 7.05613 7.30324 6.92848 7.29201 6.80641C7.2864 6.67314 7.26956 6.53988 7.25272 6.40661C7.24149 6.28876 7.22046 6.17233 7.19801 6.05029C7.16994 5.87212 7.13068 5.69537 7.08577 5.51719L7.07036 5.44986C7.03667 5.32782 7.00864 5.21136 6.96934 5.08932C6.85853 4.70633 6.73085 4.33318 6.59618 3.98387C6.54709 3.84499 6.49095 3.71172 6.43485 3.57845C6.35207 3.37782 6.2679 3.19546 6.19077 3.0229C6.15148 2.94434 6.1178 2.87279 6.08415 2.79985C6.04628 2.71707 6.00698 2.63433 5.96772 2.55574C5.93965 2.49542 5.90737 2.43931 5.88494 2.38321L5.64505 1.9399C5.61137 1.87957 5.6675 1.80803 5.73341 1.82626L7.23448 2.2331H7.2387C7.24149 2.2331 7.24292 2.2345 7.24431 2.2345L7.44212 2.28921L7.65956 2.35092L7.73951 2.37338V1.48117C7.73951 1.05048 8.08463 0.701172 8.5111 0.701172C8.72433 0.701172 8.91791 0.788135 9.05679 0.929837C9.19567 1.07154 9.28267 1.26513 9.28267 1.48117V2.80546L9.44258 2.85034C9.45523 2.85456 9.46785 2.86017 9.47908 2.86858C9.51834 2.89804 9.57445 2.94155 9.646 2.99483C9.70213 3.03974 9.76245 3.09445 9.8354 3.15055C9.97989 3.26701 10.1524 3.41712 10.3418 3.58965C10.3923 3.63316 10.4414 3.67804 10.4863 3.72295C10.7304 3.95019 11.004 4.21675 11.2649 4.51135C11.3379 4.5941 11.4094 4.67827 11.4824 4.76666C11.5553 4.85644 11.6325 4.94483 11.6998 5.03322C11.7882 5.15104 11.8836 5.27308 11.9663 5.40077C12.0056 5.46109 12.0505 5.52281 12.0884 5.58313C12.195 5.74446 12.289 5.91141 12.3788 6.07833C12.4167 6.15549 12.4559 6.23966 12.4896 6.32244C12.5892 6.54549 12.6678 6.77276 12.7183 7.00003C12.7337 7.04912 12.7449 7.10244 12.7505 7.15014V7.16133C12.7674 7.22869 12.773 7.30024 12.7786 7.37319C12.801 7.60604 12.7898 7.83892 12.7393 8.0732C12.7183 8.17282 12.6902 8.26679 12.6565 8.36641C12.6229 8.4618 12.5892 8.56139 12.5457 8.65539C12.4616 8.85038 12.3619 9.04539 12.2441 9.22775C12.2062 9.29509 12.1613 9.36663 12.1164 9.43397C12.0673 9.50552 12.0169 9.57288 11.9719 9.63881C11.9102 9.72298 11.8443 9.81134 11.777 9.8899C11.7166 9.97268 11.6549 10.0555 11.5876 10.1284C11.4936 10.2392 11.4038 10.3444 11.3098 10.4455C11.2537 10.5114 11.1934 10.5787 11.1316 10.639C11.0713 10.7064 11.0096 10.7667 10.9535 10.8228C10.8595 10.9168 10.7809 10.9897 10.715 11.0501L10.5607 11.1918C10.5382 11.2114 10.5088 11.2226 10.4779 11.2226H9.28267V12.756H10.7865C11.1232 12.756 11.4431 12.6367 11.7012 12.4179C11.7896 12.3407 12.1754 12.0068 12.6313 11.5032C12.6467 11.4864 12.6664 11.4737 12.6888 11.4681L16.8427 10.2673C16.9198 10.2448 16.9984 10.3038 16.9984 10.3851Z" fill="#666666"/>
</svg>
