<svg width="20" height="16" viewBox="0 0 20 16" fill="none" xmlns="http://www.w3.org/2000/svg">
    <path d="M19.6654 15.7714L18.2192 14.3238C18.0669 14.2476 17.9908 14.019 17.9908 13.8667V2.28571C17.9908 2.13333 18.0669 1.90476 18.2192 1.75238L19.6654 0.0761893V0H14.4895L10.6076 9.82857L6.19292 0H0.864839V0.0761893L2.23492 1.98095C2.53938 2.28571 2.6155 2.74286 2.6155 3.12381V11.5048C2.69161 11.9619 2.6155 12.4952 2.38715 12.9524L0.332031 15.7714V15.8476H5.81235V15.7714L3.75723 13.0286C3.52888 12.5714 3.45277 12.1143 3.52888 11.581V3.96191C3.605 4.11429 3.68111 4.11429 3.75723 4.41905L8.93308 16H9.0092L14.0328 3.42857C13.9567 3.88571 13.9567 4.41905 13.9567 4.8V13.7905C13.9567 14.019 13.8806 14.1714 13.7284 14.3238L12.206 15.7714V15.8476H19.6654V15.7714Z" fill="#666666"/>
</svg>
