<svg width="18" height="15" viewBox="0 0 18 15" fill="none" xmlns="http://www.w3.org/2000/svg">
    <path d="M1.19158 6.64746C5.84445 4.57767 8.94709 3.21314 10.4995 2.55386C14.932 0.671499 15.853 0.344513 16.4533 0.333601C16.5853 0.331341 16.8806 0.36475 17.0718 0.523181C17.2333 0.656956 17.2777 0.837668 17.2989 0.964502C17.3202 1.09134 17.3467 1.38027 17.3256 1.60603C17.0854 4.18284 16.0461 10.4361 15.5174 13.3222C15.2936 14.5434 14.8531 14.9528 14.4266 14.9929C13.4997 15.08 12.7959 14.3675 11.8982 13.7666C10.4934 12.8265 9.69984 12.2412 8.33628 11.3237C6.76046 10.2635 7.782 9.68073 8.68006 8.72837C8.91508 8.47913 12.9989 4.68652 13.0779 4.34247C13.0878 4.29944 13.097 4.13905 13.0037 4.05436C12.9103 3.96967 12.7726 3.99863 12.6732 4.02166C12.5323 4.05431 10.2882 5.56876 5.94088 8.565C5.3039 9.0116 4.72694 9.22919 4.21001 9.21779C3.64013 9.20522 2.54391 8.8888 1.72898 8.61833C0.729439 8.28659 -0.0649766 8.1112 0.00419916 7.5478C0.0402301 7.25435 0.436023 6.95423 1.19158 6.64746Z" fill="#666666"/>
</svg>
