<svg width="20" height="16" viewBox="0 0 20 16" fill="none" xmlns="http://www.w3.org/2000/svg">
    <path d="M17.5264 3.99349C17.5264 4.16084 17.5264 4.32819 17.5264 4.47163C17.5264 9.42046 13.6546 15.1343 6.59713 15.1343C4.41618 15.1343 2.40676 14.5127 0.691406 13.4608C0.985467 13.4847 1.30403 13.5086 1.59809 13.5086C3.38696 13.5086 5.05331 12.9109 6.37658 11.9068C4.68573 11.8829 3.26444 10.7832 2.79884 9.30092C3.04389 9.34874 3.26444 9.37265 3.53399 9.37265C3.87706 9.37265 4.22014 9.32483 4.5387 9.2292C2.77434 8.8945 1.45106 7.38833 1.45106 5.57137C1.45106 5.54747 1.45106 5.54747 1.45106 5.52356C1.96567 5.81045 2.55379 5.9778 3.19092 6.00171C2.16171 5.3323 1.47557 4.18474 1.47557 2.86984C1.47557 2.17652 1.67161 1.53103 1.99017 0.981156C3.87706 3.25236 6.71965 4.73461 9.90531 4.90197C9.8318 4.63899 9.80729 4.32819 9.80729 4.0413C9.80729 1.96136 11.5226 0.287842 13.6546 0.287842C14.7573 0.287842 15.762 0.742082 16.4482 1.4593C17.3303 1.29195 18.139 0.981156 18.8987 0.550823C18.6046 1.4354 17.992 2.15262 17.2078 2.63077C17.992 2.53514 18.7271 2.34388 19.4133 2.03308C18.9232 2.79812 18.286 3.46752 17.5264 3.99349Z" fill="#666666"/>
</svg>
